<svg width="40" height="40" viewBox="0 0 40 40" fill="none" xmlns="http://www.w3.org/2000/svg">
    <g clip-path="url(#8h94opxy3a)" fill="#878787">
        <path d="M11.055 33.387a16.1 16.1 0 1 0 17.89-26.774 16.1 16.1 0 0 0-17.89 26.774zm1.297-24.834a13.766 13.766 0 1 1 15.296 22.893A13.766 13.766 0 0 1 12.352 8.553z" stroke="#878787" stroke-width=".2"/>
        <path d="M26.187 26.188c-.49.49-1.284.49-1.774 0l-5.3-5.3A1.25 1.25 0 0 1 18.75 20v-8.75a1.25 1.25 0 1 1 2.5 0v7.408a2 2 0 0 0 .587 1.415l4.35 4.34c.49.49.49 1.285 0 1.775z"/>
    </g>
    <defs>
        <clipPath id="8h94opxy3a">
            <path fill="#fff" d="M0 0h40v40H0z"/>
        </clipPath>
    </defs>
</svg>
